<svg width="40" height="40" viewBox="0 0 40 40" fill="none" xmlns="http://www.w3.org/2000/svg">
    <rect width="40" height="40" rx="8" fill="#2FB344"/>
    <path d="M8 10H12L16 20L20 10H24V30H20V18L16 28H15L11 18V30H8V10Z" fill="white"/>
    <path d="M26 10H32C35.3137 10 38 12.6863 38 16V24C38 27.3137 35.3137 30 32 30H26V10ZM30 14V26H32C32.5304 26 33.0391 25.7893 33.4142 25.4142C33.7893 25.0391 34 24.5304 34 24V16C34 15.4696 33.7893 14.9609 33.4142 14.5858C33.0391 14.2107 32.5304 14 32 14H30Z" fill="white"/>
  </svg>